<svg width="9.329956" height="9.166664" viewBox="0 0 9.32996 9.16666" fill="none" xmlns="http://www.w3.org/2000/svg" xmlns:xlink="http://www.w3.org/1999/xlink">
	<desc>
			Created with Pixso.
	</desc>
	<defs/>
	<path id="max_icon" d="M2.4552 0L8.3479 0C8.88806 0 9.32996 0.375 9.32996 0.833336L9.32996 6.66666L8.3479 6.66666L8.3479 0.833336L2.4552 0.833336L2.4552 0ZM0.982056 1.66666L6.38367 1.66666C6.92383 1.66666 7.36572 2.04166 7.36572 2.5L7.36572 8.33334C7.36572 8.79166 6.92383 9.16666 6.38367 9.16666L0.982056 9.16666C0.441895 9.16666 0 8.79166 0 8.33334L0 2.5C0 2.04166 0.441895 1.66666 0.982056 1.66666ZM0.982056 8.33334L6.38367 8.33334L6.38367 2.5L0.982056 2.5L0.982056 8.33334Z" fill="#FFFFFF" fill-opacity="1.000000" fill-rule="evenodd"/>
</svg>
